<?xml version="1.0" standalone="no"?>
<!DOCTYPE svg PUBLIC "-//W3C//DTD SVG 20010904//EN"
 "http://www.w3.org/TR/2001/REC-SVG-20010904/DTD/svg10.dtd">
<svg version="1.0" xmlns="http://www.w3.org/2000/svg"
 width="1254.000000pt" height="1254.000000pt" viewBox="0 0 1254.000000 1254.000000"
 preserveAspectRatio="xMidYMid meet">

<g transform="translate(0.000000,1254.000000) scale(0.100000,-0.100000)"
fill="#000000" stroke="none">
<path d="M0 6270 l0 -6270 6270 0 6270 0 0 6270 0 6270 -6270 0 -6270 0 0
-6270z m6585 3106 c66 -10 125 -21 131 -25 14 -7 17 0 -137 -316 -250 -515
-442 -901 -456 -917 -19 -22 -52 -23 -79 -4 -16 13 -20 31 -24 153 -7 153 -15
179 -74 230 -66 58 -62 58 -652 58 l-541 -1 -48 -24 c-26 -14 -62 -42 -79 -63
l-31 -39 0 -656 0 -657 28 -57 c24 -50 58 -84 235 -241 246 -218 283 -257 308
-323 17 -45 19 -79 19 -404 0 -308 -2 -364 -18 -419 -10 -38 -225 -478 -538
-1105 -287 -572 -523 -1043 -525 -1045 -2 -2 -4 1320 -4 2938 l0 2942 1183 -3
c1085 -3 1192 -5 1302 -22z m618 -180 c276 -114 549 -283 791 -489 488 -416
825 -998 950 -1643 47 -242 51 -294 51 -624 0 -279 -3 -333 -24 -470 -112
-740 -452 -1392 -951 -1824 -180 -156 -331 -257 -540 -362 -326 -162 -651
-243 -1068 -266 -185 -11 -215 -10 -223 2 -5 9 -8 289 -6 698 l2 684 28 23
c15 13 42 26 60 29 155 24 245 43 322 68 106 35 281 127 380 200 98 72 270
248 337 343 67 96 166 291 201 395 84 249 103 571 48 833 -27 131 -53 204
-121 344 -187 383 -535 655 -947 739 -79 16 -113 35 -113 62 0 17 53 133 204
446 58 120 106 220 106 221 0 2 36 79 81 171 44 93 112 237 151 319 39 83 75
155 80 162 10 13 55 0 201 -61z m-2087 -967 l29 -30 3 -510 c2 -440 0 -514
-13 -542 -20 -42 -49 -59 -99 -59 -33 1 -47 7 -69 32 l-28 31 3 530 3 531 28
24 c42 36 104 34 143 -7z m515 2 l29 -29 0 -526 0 -526 -28 -31 c-52 -59 -150
-37 -172 38 -8 26 -10 197 -8 541 l3 504 33 29 c45 41 102 41 143 0z m-220
-3004 c29 -16 54 -40 74 -72 l30 -48 3 -651 c2 -489 0 -662 -9 -695 -8 -27
-28 -61 -53 -87 -80 -82 -200 -85 -287 -7 -71 64 -70 54 -67 789 l3 649 24 43
c56 96 182 131 282 79z"/>
<path d="M5274 3980 c-58 -23 -70 -95 -25 -141 37 -37 79 -38 120 -3 42 35 43
84 2 125 -30 29 -58 35 -97 19z"/>
</g>
</svg>
